<?xml version="1.0" encoding="UTF-8"?>
<!DOCTYPE svg PUBLIC "-//W3C//DTD SVG 1.1//EN" "http://www.w3.org/Graphics/SVG/1.1/DTD/svg11.dtd">
<!-- Creator: CorelDRAW X8 -->
<svg xmlns="http://www.w3.org/2000/svg" xml:space="preserve" width="165.07mm" height="165.07mm" version="1.1" style="shape-rendering:geometricPrecision; text-rendering:geometricPrecision; image-rendering:optimizeQuality; fill-rule:evenodd; clip-rule:evenodd"
viewBox="0 0 16507 16507"
 xmlns:xlink="http://www.w3.org/1999/xlink"
 data-name="Capa 1">
 <defs>
  <style type="text/css">
   <![CDATA[
    .fil0 {fill:#00B1BF}
   ]]>
  </style>
 </defs>
 <g id="Capa_x0020_1">
  <metadata id="CorelCorpID_0Corel-Layer"/>
  <path class="fil0" d="M8658 8698l-2 271c106,424 1603,1129 -40,7241 -38,122 -106,224 -215,297 0,0 -693,-124 -703,-908 -11,-783 -276,-5122 105,-6593l5 -320 -290 -5c-1971,1217 -3615,632 -7224,-133 -125,-26 -274,-154 -294,-231 0,0 55,-656 1006,-715 959,-59 4970,-145 6640,240l175 1 5 -325c-1217,-1971 -632,-3615 133,-7224 26,-125 154,-274 231,-294 0,0 656,55 715,1006 59,959 145,4970 -240,6640l-2 203 306 2c424,-106 1129,-1603 7241,40 122,38 224,106 297,215 0,0 -124,693 -908,704 -783,10 -5122,275 -6593,-106l-348 -6zm-404 -592c81,0 147,66 147,148 0,81 -66,147 -147,147 -82,0 -148,-66 -148,-147 0,-82 66,-148 148,-148z"/>
 </g>
</svg>
