<?xml version="1.0" encoding="UTF-8"?>
<!DOCTYPE svg PUBLIC "-//W3C//DTD SVG 1.1//EN" "http://www.w3.org/Graphics/SVG/1.1/DTD/svg11.dtd">
<!-- Creator: CorelDRAW X8 -->
<svg xmlns="http://www.w3.org/2000/svg" xml:space="preserve" width="41mm" height="41mm" version="1.1" style="shape-rendering:geometricPrecision; text-rendering:geometricPrecision; image-rendering:optimizeQuality; fill-rule:evenodd; clip-rule:evenodd"
viewBox="0 0 4100 4100"
 xmlns:xlink="http://www.w3.org/1999/xlink">
 <defs>
  <style type="text/css">
   <![CDATA[
    .fil0 {fill:url(#id0);fill-rule:nonzero}
   ]]>
  </style>
  <linearGradient id="id0" gradientUnits="userSpaceOnUse" x1="2050.01" y1="4099.89" x2="2050.01" y2="0.11">
   <stop offset="0" style="stop-opacity:1; stop-color:#003366"/>
   <stop offset="1" style="stop-opacity:1; stop-color:#009999"/>
  </linearGradient>
 </defs>
 <g id="Capa_x0020_1">
  <metadata id="CorelCorpID_0Corel-Layer"/>
  <path class="fil0" d="M2865 2832c-372,-641 -615,-570 -809,-887 180,-335 374,-146 673,-834 95,-216 437,-905 457,-1081 -285,-196 -1032,1369 -1261,1737 -64,-112 -1513,-2525 -1278,-1525 18,98 425,889 496,1021 301,557 451,378 677,691 -200,366 -404,337 -683,910 -90,187 -516,1057 -488,1209 259,202 1056,-1615 1300,-1932 223,316 1309,2199 1529,1933 22,-134 -516,-1074 -613,-1242zm-924 -826l0 0c-68,0 -68,-106 0,-106 69,0 68,106 0,106z"/>
 </g>
</svg>
